<svg width="223" height="72" viewBox="0 0 223 72" fill="none" xmlns="http://www.w3.org/2000/svg">
<path d="M2.87578 26.036C2.63578 26.06 2.27578 26 1.79578 25.856C1.33978 25.688 1.02778 25.52 0.859782 25.352C0.691782 25.112 0.535782 24.824 0.391782 24.488C0.271781 24.152 0.175781 23.852 0.103781 23.588C0.0557815 23.3 0.0317815 23.132 0.0317815 23.084L0.463781 20.096C0.583782 19.88 0.643782 19.652 0.643782 19.412C0.667782 19.172 0.727782 18.944 0.823781 18.728C0.799781 18.608 0.835782 18.368 0.931782 18.008C1.05178 17.624 1.18378 17.204 1.32778 16.748C1.49578 16.268 1.65178 15.836 1.79578 15.452C1.93978 15.044 2.02378 14.78 2.04778 14.66C2.14378 14.3 2.27578 13.94 2.44378 13.58C2.61178 13.22 2.76778 12.86 2.91178 12.5C3.10378 11.876 3.24778 11.42 3.34378 11.132C3.43978 10.844 3.52378 10.616 3.59578 10.448C3.69178 10.28 3.79978 10.088 3.91978 9.872C4.03978 9.632 4.20778 9.272 4.42378 8.792L6.54778 3.968C6.30778 3.848 6.09178 3.62 5.89978 3.284C5.70778 2.924 5.61178 2.6 5.61178 2.312C5.58778 2.168 5.61178 2.072 5.68378 2.024C5.75578 1.952 5.87578 1.88 6.04378 1.808C6.30778 1.808 6.58378 1.796 6.87178 1.772C7.15978 1.748 7.44778 1.76 7.73578 1.808C7.95178 1.832 8.09578 1.82 8.16778 1.772C8.23978 1.7 8.38378 1.688 8.59978 1.736C8.81578 1.808 9.03178 1.832 9.24778 1.808C9.48778 1.784 9.69178 1.724 9.85978 1.628C9.93178 1.628 10.1478 1.616 10.5078 1.592C10.8678 1.568 11.2638 1.544 11.6958 1.52C12.1518 1.496 12.5478 1.472 12.8838 1.448C13.2438 1.424 13.4598 1.412 13.5318 1.412C13.5078 1.412 13.6638 1.4 13.9998 1.376C14.3598 1.352 14.7798 1.328 15.2598 1.304C15.7398 1.256 16.1718 1.22 16.5558 1.196C16.9398 1.148 17.1558 1.112 17.2038 1.088C17.7078 0.967999 18.0558 1.016 18.2478 1.232C18.4398 1.448 18.5838 1.652 18.6798 1.844C18.7278 1.964 18.7878 2.096 18.8598 2.24C18.9318 2.36 18.9798 2.468 19.0038 2.564C19.0518 2.636 19.0398 2.684 18.9678 2.708C18.8478 2.876 18.6798 2.996 18.4638 3.068C18.2718 3.14 18.0438 3.128 17.7798 3.032C17.6838 3.008 17.3358 3.008 16.7358 3.032C16.1358 3.056 15.4038 3.104 14.5398 3.176C13.6998 3.248 12.8358 3.332 11.9478 3.428C11.0838 3.5 10.3278 3.572 9.67978 3.644C9.43978 3.788 9.23578 3.98 9.06778 4.22C8.89978 4.436 8.74378 4.676 8.59978 4.94C8.52778 5.084 8.35978 5.42 8.09578 5.948C7.85578 6.476 7.59178 7.052 7.30378 7.676C7.01578 8.3 6.77578 8.84 6.58378 9.296C6.39178 9.728 6.29578 9.932 6.29578 9.908C6.10378 10.172 6.15178 10.328 6.43978 10.376C6.75178 10.424 7.01578 10.448 7.23178 10.448C7.42378 10.448 7.61578 10.496 7.80778 10.592C8.02378 10.664 8.22778 10.688 8.41978 10.664C8.53978 10.64 8.76778 10.676 9.10378 10.772C9.46378 10.844 9.84778 10.952 10.2558 11.096C10.6878 11.216 11.0718 11.348 11.4078 11.492C11.7678 11.612 12.0198 11.72 12.1638 11.816C12.7158 12.152 13.1958 12.488 13.6038 12.824C14.0118 13.16 14.3358 13.568 14.5758 14.048C14.8158 14.528 15.0198 15.02 15.1878 15.524C15.3558 16.028 15.4158 16.556 15.3678 17.108C15.3678 17.228 15.3318 17.48 15.2598 17.864C15.2118 18.224 15.1398 18.596 15.0438 18.98C14.9478 19.364 14.8398 19.652 14.7198 19.844C14.4318 20.324 14.1198 20.78 13.7838 21.212C13.4718 21.62 13.1838 21.98 12.9198 22.292C12.5358 22.772 12.0798 23.18 11.5518 23.516C11.0478 23.828 10.5198 24.116 9.96778 24.38C9.53578 24.596 9.19978 24.764 8.95978 24.884C8.74378 24.98 8.53978 25.052 8.34778 25.1C8.15578 25.148 7.89178 25.208 7.55578 25.28C7.57978 25.28 7.45978 25.316 7.19578 25.388C6.93178 25.436 6.66778 25.496 6.40378 25.568C6.13978 25.64 6.00778 25.676 6.00778 25.676C5.69578 25.844 5.37178 25.952 5.03578 26C4.69978 26.024 4.36378 26.036 4.02778 26.036C3.83578 26.036 3.64378 26.024 3.45178 26C3.25978 26 3.06778 26.012 2.87578 26.036ZM2.55178 24.128C2.91178 24.104 3.28378 24.092 3.66778 24.092C4.05178 24.092 4.43578 24.044 4.81978 23.948C6.01978 23.612 7.13578 23.252 8.16778 22.868C9.22378 22.484 10.1838 21.812 11.0478 20.852C11.6478 20.156 12.0918 19.508 12.3798 18.908C12.6918 18.308 12.9318 17.624 13.0998 16.856C13.1958 16.472 13.1958 16.124 13.0998 15.812C13.0038 15.476 12.9198 15.08 12.8478 14.624C12.6318 14.12 12.4278 13.784 12.2358 13.616C12.0438 13.424 11.8518 13.304 11.6598 13.256C11.4678 13.208 11.2758 13.136 11.0838 13.04C10.7718 12.776 10.3278 12.596 9.75178 12.5C9.17578 12.404 8.77978 12.344 8.56378 12.32C8.70778 12.344 8.67178 12.344 8.45578 12.32C8.26378 12.272 7.97578 12.224 7.59178 12.176C7.20778 12.104 6.82378 12.044 6.43978 11.996C6.05578 11.948 5.75578 11.924 5.53978 11.924C5.37178 12.308 5.19178 12.728 4.99978 13.184C4.83178 13.64 4.65178 14.096 4.45978 14.552C4.29178 14.984 4.13578 15.416 3.99178 15.848C3.75178 16.544 3.52378 17.252 3.30778 17.972C3.09178 18.668 2.88778 19.376 2.69578 20.096C2.59978 20.504 2.50378 20.996 2.40778 21.572C2.31178 22.148 2.26378 22.688 2.26378 23.192C2.28778 23.672 2.38378 23.984 2.55178 24.128ZM16.0442 25.856C15.9482 25.808 15.8162 25.712 15.6482 25.568C15.5042 25.424 15.3722 25.28 15.2522 25.136C15.1802 25.064 15.1202 25.004 15.0722 24.956C15.0242 24.884 14.9762 24.836 14.9282 24.812C14.9282 24.644 14.9642 24.524 15.0362 24.452C15.1322 24.38 15.2282 24.296 15.3242 24.2C15.4202 24.056 15.5762 23.984 15.7922 23.984C16.0082 23.984 16.1762 23.924 16.2962 23.804C16.7282 23.492 17.1722 23.168 17.6282 22.832C18.0842 22.496 18.4682 22.1 18.7802 21.644C19.1162 21.164 19.4522 20.648 19.7882 20.096C20.1242 19.544 20.4482 19.004 20.7602 18.476C20.8562 18.308 21.0122 18.008 21.2282 17.576C21.4442 17.144 21.6482 16.724 21.8402 16.316C22.0562 15.884 22.1762 15.584 22.2002 15.416C21.9842 15.344 21.7802 15.284 21.5882 15.236C21.4202 15.164 21.2522 15.104 21.0842 15.056C20.8682 14.72 20.7482 14.528 20.7242 14.48C20.7002 14.408 20.6882 14.18 20.6882 13.796C20.6882 13.508 20.8442 13.328 21.1562 13.256C21.8522 13.088 22.4642 12.98 22.9922 12.932C23.5442 12.884 24.0842 12.788 24.6122 12.644C24.9482 12.548 25.3562 12.512 25.8362 12.536C26.3162 12.56 26.7962 12.668 27.2762 12.86C27.4922 12.956 27.6722 13.076 27.8162 13.22C27.9602 13.364 28.0922 13.532 28.2122 13.724C28.5242 14.156 28.6802 14.528 28.6802 14.84C28.7042 15.152 28.6922 15.452 28.6442 15.74C28.5962 16.028 28.6322 16.352 28.7522 16.712C28.5842 17.36 28.4162 17.936 28.2482 18.44C28.0802 18.92 27.9242 19.376 27.7802 19.808C27.6362 20.216 27.5042 20.6 27.3842 20.96C27.2642 21.32 27.1682 21.68 27.0962 22.04C27.0002 22.424 26.8802 22.808 26.7362 23.192C26.5922 23.576 26.4842 23.972 26.4122 24.38C26.3642 24.692 26.2202 24.92 25.9802 25.064C25.7642 25.208 25.5242 25.34 25.2602 25.46C25.1642 25.484 24.9962 25.46 24.7562 25.388C24.5402 25.292 24.3362 25.16 24.1442 24.992C24.0722 24.728 24.0482 24.488 24.0722 24.272C24.0962 24.056 24.1442 23.84 24.2162 23.624C24.2882 23.432 24.4202 23 24.6122 22.328C24.8042 21.656 25.0202 20.9 25.2602 20.06C25.5002 19.22 25.7282 18.44 25.9442 17.72C26.1602 17 26.3042 16.496 26.3762 16.208C26.4962 15.824 26.5322 15.536 26.4842 15.344C26.4602 15.152 26.4242 14.972 26.3762 14.804C25.8722 14.612 25.5242 14.552 25.3322 14.624C25.1642 14.672 24.9482 14.72 24.6842 14.768C24.5642 14.864 24.4682 14.972 24.3962 15.092C24.3242 15.212 24.2762 15.332 24.2522 15.452C23.9882 16.148 23.7602 16.7 23.5682 17.108C23.4002 17.516 23.2322 17.888 23.0642 18.224C22.8962 18.536 22.7042 18.884 22.4882 19.268C22.2962 19.652 22.0442 20.18 21.7322 20.852C21.5402 21.284 21.3002 21.68 21.0122 22.04C20.7482 22.4 20.5082 22.784 20.2922 23.192L19.8962 23.696C19.9202 23.696 19.8242 23.792 19.6082 23.984C19.3922 24.176 19.1762 24.368 18.9602 24.56C18.7682 24.752 18.6722 24.848 18.6722 24.848L17.5562 25.712C17.4362 25.808 17.2322 25.856 16.9442 25.856C16.6562 25.856 16.3562 25.856 16.0442 25.856ZM32.4512 25.46C32.1392 25.46 31.8872 25.4 31.6952 25.28C31.5272 25.16 31.3112 24.992 31.0472 24.776C30.5912 24.296 30.2672 23.84 30.0752 23.408C29.8832 22.952 29.8232 22.52 29.8952 22.112C29.9672 21.92 29.9912 21.74 29.9672 21.572C29.9672 21.38 29.9672 21.284 29.9672 21.284C29.8472 21.164 29.8112 21.092 29.8592 21.068C29.9072 21.02 29.9552 20.948 30.0032 20.852C30.1472 20.852 30.1952 20.72 30.1472 20.456C30.0992 20.264 30.1952 19.844 30.4352 19.196C30.6752 18.548 30.9752 17.936 31.3352 17.36C31.4792 17.12 31.6952 16.808 31.9832 16.424C32.2712 16.016 32.5832 15.62 32.9192 15.236C33.2792 14.828 33.6032 14.504 33.8912 14.264C34.4912 13.76 35.0192 13.388 35.4752 13.148C35.9312 12.908 36.4232 12.728 36.9512 12.608C37.4792 12.488 37.8392 12.428 38.0312 12.428C38.2472 12.428 38.5352 12.62 38.8952 13.004C39.4472 13.244 39.8432 13.532 40.0832 13.868C40.3472 14.204 40.5152 14.696 40.5872 15.344C40.6592 16.064 40.5992 16.892 40.4072 17.828C40.2392 18.74 39.6752 19.88 38.7152 21.248C38.1152 22.112 37.5632 22.76 37.0592 23.192C36.5552 23.6 35.9552 24.008 35.2592 24.416C34.7552 24.752 34.2992 25.004 33.8912 25.172C33.4832 25.316 33.0032 25.412 32.4512 25.46ZM35.9072 21.644C36.4832 20.996 36.9392 20.384 37.2752 19.808C37.6352 19.232 37.9712 18.5 38.2832 17.612C38.3792 17.348 38.4392 17.024 38.4632 16.64C38.4872 16.232 38.4752 15.86 38.4272 15.524C38.4032 15.164 38.3192 14.96 38.1752 14.912C37.8872 14.744 37.5392 14.696 37.1312 14.768C36.7232 14.816 36.2792 15.044 35.7992 15.452C35.0552 16.076 34.4072 16.856 33.8552 17.792C33.3032 18.704 32.7632 19.748 32.2352 20.924C31.8752 21.788 31.7912 22.484 31.9832 23.012C32.1992 23.516 32.6432 23.696 33.3152 23.552C34.0112 23.384 34.8752 22.748 35.9072 21.644ZM43.0906 25.82C42.8986 25.748 42.6946 25.604 42.4786 25.388C42.2626 25.148 42.0826 24.872 41.9386 24.56C41.7946 24.248 41.7226 23.96 41.7226 23.696C41.8426 23.432 41.9986 22.976 42.1906 22.328C42.3826 21.656 42.6226 20.888 42.9106 20.024C43.1026 19.76 43.2466 19.448 43.3426 19.088C43.4626 18.728 43.5706 18.404 43.6666 18.116C43.8586 17.732 44.0866 17.24 44.3506 16.64C44.6146 16.016 44.8666 15.392 45.1066 14.768C45.3706 14.12 45.5986 13.58 45.7906 13.148C46.0546 12.524 46.2106 12.14 46.2586 11.996C46.3066 11.828 46.3426 11.696 46.3666 11.6C46.3666 11.408 46.4146 11.252 46.5106 11.132C46.6066 10.988 46.7026 10.916 46.7986 10.916C46.8946 10.82 47.0026 10.772 47.1226 10.772C47.2666 10.748 47.3866 10.736 47.4826 10.736C47.7466 10.736 47.9746 10.916 48.1666 11.276C48.3586 11.612 48.4546 11.924 48.4546 12.212C48.4546 12.5 48.3466 12.908 48.1306 13.436C47.9386 13.94 47.7106 14.468 47.4466 15.02C47.2066 15.572 47.0026 16.052 46.8346 16.46C46.6666 16.868 46.6186 17.108 46.6906 17.18C46.6906 17.18 46.8586 17.108 47.1946 16.964C47.5306 16.796 47.8906 16.568 48.2746 16.28C48.5386 16.136 48.8266 15.956 49.1386 15.74C49.4506 15.524 49.7506 15.32 50.0386 15.128C50.3266 14.912 50.5666 14.78 50.7586 14.732C51.0466 14.54 51.3466 14.36 51.6586 14.192C51.9706 14 52.1746 13.856 52.2706 13.76C52.6786 13.568 52.9786 13.508 53.1706 13.58C53.3866 13.652 53.6026 13.832 53.8186 14.12C54.0826 14.432 54.1306 14.708 53.9626 14.948C53.7946 15.164 53.3986 15.464 52.7746 15.848C52.2706 16.16 51.6586 16.532 50.9386 16.964C50.2426 17.396 49.6186 17.78 49.0666 18.116C48.5386 18.452 48.2386 18.656 48.1666 18.728C48.1666 18.728 48.2626 18.908 48.4546 19.268C48.6466 19.628 48.8386 19.952 49.0306 20.24C49.2226 20.624 49.4266 20.984 49.6426 21.32C49.8826 21.632 50.0026 21.848 50.0026 21.968C50.1946 22.472 50.4346 22.892 50.7226 23.228C51.0106 23.54 51.3346 23.744 51.6946 23.84C52.0786 23.912 52.4626 23.864 52.8466 23.696C53.3266 23.504 53.6746 23.444 53.8906 23.516C54.1306 23.588 54.2986 23.768 54.3946 24.056C54.4906 24.248 54.5146 24.392 54.4666 24.488C54.4426 24.56 54.2866 24.74 53.9986 25.028C53.5426 25.484 53.0746 25.772 52.5946 25.892C52.1386 26.012 51.7186 25.976 51.3346 25.784C51.0946 25.784 50.8186 25.688 50.5066 25.496C50.1946 25.28 49.8106 24.932 49.3546 24.452C48.9226 23.972 48.3826 23.3 47.7346 22.436C47.7346 22.34 47.6866 22.208 47.5906 22.04C47.5186 21.848 47.4346 21.668 47.3386 21.5C47.2426 21.308 47.1226 21.104 46.9786 20.888C46.8346 20.648 46.7626 20.528 46.7626 20.528C46.7626 20.456 46.7386 20.396 46.6906 20.348C46.6666 20.276 46.6186 20.192 46.5466 20.096C46.4986 20 46.4386 19.892 46.3666 19.772C45.9826 19.652 45.7066 19.724 45.5386 19.988C45.3706 20.252 45.1906 20.528 44.9986 20.816C44.8786 21.128 44.7226 21.572 44.5306 22.148C44.3626 22.7 44.2186 23.24 44.0986 23.768C44.0026 24.296 43.9786 24.656 44.0266 24.848C44.0266 25.232 43.9666 25.496 43.8466 25.64C43.7266 25.76 43.4746 25.82 43.0906 25.82ZM57.679 25.172C57.511 25.124 57.283 25.076 56.995 25.028C56.707 24.98 56.443 24.896 56.203 24.776C55.987 24.632 55.879 24.452 55.879 24.236C55.879 24.044 55.891 23.876 55.915 23.732C55.963 23.564 56.059 23.42 56.203 23.3C56.227 23.252 56.239 23.216 56.239 23.192C56.239 23.168 56.251 23.144 56.275 23.12C56.275 23 56.251 22.892 56.203 22.796C56.155 22.7 56.155 22.58 56.203 22.436C56.299 22.172 56.371 21.956 56.419 21.788C56.491 21.596 56.527 21.356 56.527 21.068C56.527 21.02 56.527 20.972 56.527 20.924C56.527 20.852 56.539 20.792 56.563 20.744C56.755 20.216 56.911 19.676 57.031 19.124C57.151 18.572 57.331 18.044 57.571 17.54C57.859 16.916 58.231 16.1 58.687 15.092C59.143 14.06 59.527 13.112 59.839 12.248C59.935 11.984 60.043 11.816 60.163 11.744C60.307 11.648 60.463 11.612 60.631 11.636C60.919 11.66 61.207 11.828 61.495 12.14C61.783 12.428 61.999 12.68 62.143 12.896C61.903 13.352 61.615 13.892 61.279 14.516C60.967 15.116 60.667 15.704 60.379 16.28C60.115 16.832 59.923 17.288 59.803 17.648C60.139 17.672 60.535 17.672 60.991 17.648C61.471 17.6 61.939 17.6 62.395 17.648C62.923 17.696 63.391 17.696 63.799 17.648C64.207 17.6 64.663 17.54 65.167 17.468C65.287 17.108 65.407 16.7 65.527 16.244C65.671 15.788 65.815 15.32 65.959 14.84C66.127 14.36 66.331 13.916 66.571 13.508C66.811 13.1 67.111 12.788 67.471 12.572C67.663 12.524 67.807 12.524 67.903 12.572C67.999 12.596 68.131 12.668 68.299 12.788C68.611 13.028 68.839 13.22 68.983 13.364C69.151 13.484 69.211 13.628 69.163 13.796C69.115 13.964 68.959 14.24 68.695 14.624C68.527 14.888 68.407 15.2 68.335 15.56C68.263 15.896 68.131 16.184 67.939 16.424C67.891 16.472 67.795 16.688 67.651 17.072C67.507 17.456 67.339 17.924 67.147 18.476C66.955 19.028 66.763 19.58 66.571 20.132C66.379 20.684 66.211 21.164 66.067 21.572C65.947 21.98 65.887 22.22 65.887 22.292C65.863 22.604 65.815 22.928 65.743 23.264C65.671 23.576 65.635 23.9 65.635 24.236C65.635 24.428 65.575 24.572 65.455 24.668C65.359 24.74 65.227 24.776 65.059 24.776C64.819 24.776 64.555 24.716 64.267 24.596C63.979 24.476 63.763 24.368 63.619 24.272C63.523 24.2 63.439 24.08 63.367 23.912C63.319 23.744 63.283 23.6 63.259 23.48C63.403 22.88 63.571 22.316 63.763 21.788C63.979 21.236 64.171 20.672 64.339 20.096C64.387 20 64.411 19.904 64.411 19.808C64.411 19.712 64.387 19.616 64.339 19.52C63.547 19.4 62.743 19.376 61.927 19.448C61.111 19.52 60.307 19.58 59.515 19.628C59.395 19.748 59.251 20.036 59.083 20.492C58.939 20.924 58.807 21.38 58.687 21.86C58.567 22.316 58.471 22.664 58.399 22.904C58.423 23.072 58.399 23.312 58.327 23.624C58.255 23.936 58.159 24.248 58.039 24.56C57.919 24.848 57.799 25.052 57.679 25.172ZM74.4933 24.632C73.9893 24.728 73.6653 24.764 73.5213 24.74C73.4013 24.692 73.2093 24.548 72.9453 24.308C72.5613 24.116 72.2373 23.876 71.9733 23.588C71.7333 23.3 71.5533 23 71.4333 22.688C71.3373 22.352 71.3013 22.076 71.3253 21.86C71.3973 21.02 71.6013 20.12 71.9373 19.16C72.2733 18.2 72.6813 17.276 73.1613 16.388C73.6413 15.5 74.1573 14.744 74.7093 14.12C75.2853 13.472 75.8373 13.052 76.3653 12.86C76.8453 12.668 77.3013 12.596 77.7333 12.644C78.1653 12.692 78.4773 12.92 78.6693 13.328C79.0293 14.024 78.9453 14.468 78.4173 14.66C78.3453 14.66 78.2613 14.696 78.1653 14.768C78.0693 14.816 78.0213 14.888 78.0213 14.984C78.1173 15.032 78.3813 15.044 78.8133 15.02C79.2453 14.972 79.6773 14.9 80.1093 14.804C80.5653 14.684 80.8653 14.564 81.0093 14.444C81.1533 14.372 81.2613 14.336 81.3333 14.336C81.4053 14.336 81.5853 14.36 81.8733 14.408C82.2813 14.528 82.4853 14.672 82.4853 14.84C82.4853 14.936 82.5213 15.032 82.5933 15.128C82.6653 15.2 82.7493 15.236 82.8453 15.236C83.0133 15.26 82.9893 15.368 82.7733 15.56C82.5813 15.752 82.2453 16.016 81.7653 16.352C81.3093 16.64 81.0213 16.832 80.9013 16.928C80.8053 17 80.7933 17.168 80.8653 17.432C81.0573 17.888 81.0693 18.416 80.9013 19.016C80.7333 19.616 80.4333 20.228 80.0013 20.852C79.5693 21.476 79.0413 22.064 78.4173 22.616C77.8173 23.144 77.1693 23.6 76.4733 23.984C75.8013 24.344 75.1413 24.56 74.4933 24.632ZM73.8813 23.048C73.9773 23.048 74.1453 23 74.3853 22.904C74.6253 22.784 74.8173 22.688 74.9613 22.616C75.0573 22.52 75.1773 22.412 75.3213 22.292C75.4893 22.148 75.6213 22.064 75.7173 22.04C75.8133 22.04 75.9333 22.004 76.0773 21.932C76.2213 21.836 76.4253 21.656 76.6893 21.392C76.9533 21.104 77.3013 20.684 77.7333 20.132C78.2133 19.604 78.5853 19.124 78.8493 18.692C79.1133 18.236 79.1853 17.816 79.0653 17.432C79.0413 17.336 78.9693 17.276 78.8493 17.252C78.7533 17.228 78.6213 17.168 78.4533 17.072C78.2133 17.072 77.9853 17.012 77.7693 16.892C77.5773 16.748 77.3493 16.568 77.0853 16.352L76.5093 15.632L75.8973 16.244C75.5133 16.628 75.1053 17.204 74.6733 17.972C74.2653 18.716 73.9173 19.484 73.6293 20.276C73.3413 21.044 73.1733 21.656 73.1253 22.112C73.1013 22.472 73.1613 22.712 73.3053 22.832C73.4493 22.952 73.6413 23.024 73.8813 23.048ZM84.5567 24.236C84.2927 24.068 84.0527 23.852 83.8367 23.588C83.6207 23.3 83.5127 22.94 83.5127 22.508C83.5127 22.268 83.5607 21.86 83.6567 21.284C83.7527 20.708 83.8847 20.06 84.0527 19.34C84.2207 18.62 84.3887 17.948 84.5567 17.324C84.7967 16.892 85.0007 16.46 85.1687 16.028C85.3367 15.596 85.4207 15.332 85.4207 15.236C85.4687 14.948 85.5287 14.612 85.6007 14.228C85.6967 13.844 85.7927 13.496 85.8887 13.184C85.9847 12.872 86.0567 12.692 86.1047 12.644C86.2247 12.524 86.3687 12.452 86.5367 12.428C86.7047 12.38 86.8727 12.404 87.0407 12.5C87.2327 12.572 87.3767 12.728 87.4727 12.968C87.7367 13.256 87.8687 13.604 87.8687 14.012C87.8687 14.396 87.7367 14.972 87.4727 15.74C87.2567 16.22 87.0407 16.784 86.8247 17.432C86.6087 18.08 86.4167 18.68 86.2487 19.232C86.1047 19.76 86.0207 20.12 85.9967 20.312L85.2767 20.528C85.6847 20.144 86.0687 19.748 86.4287 19.34C86.7887 18.908 87.0527 18.572 87.2207 18.332C87.6287 17.78 87.9767 17.324 88.2647 16.964C88.5767 16.58 88.9727 16.124 89.4527 15.596C89.9327 15.044 90.4007 14.708 90.8567 14.588C91.3367 14.444 91.7087 14.372 91.9727 14.372C92.5007 14.468 92.9207 14.744 93.2327 15.2C93.5687 15.632 93.7847 16.28 93.8807 17.144C93.8807 17.48 93.8447 17.876 93.7727 18.332C93.7247 18.788 93.7007 19.016 93.7007 19.016C93.7007 19.016 93.8927 18.764 94.2767 18.26C94.6847 17.756 95.2247 17.204 95.8967 16.604C96.3527 16.268 96.7967 16.076 97.2287 16.028C97.6607 15.956 98.0447 16.1 98.3807 16.46C99.0047 16.796 99.4127 17.312 99.6047 18.008C99.7967 18.68 99.8447 19.544 99.7487 20.6C99.6767 21.224 99.6647 21.692 99.7127 22.004C99.7607 22.292 99.8327 22.58 99.9287 22.868C100.121 22.964 100.157 23.168 100.037 23.48C99.9167 23.768 99.7727 23.912 99.6047 23.912C99.3647 23.912 99.0887 23.864 98.7767 23.768C98.4887 23.672 98.2247 23.516 97.9847 23.3C97.7687 23.06 97.6607 22.736 97.6607 22.328V20.096C97.6607 19.568 97.6367 19.136 97.5887 18.8C97.5647 18.464 97.5047 18.26 97.4087 18.188C97.1447 18.044 96.7607 18.2 96.2567 18.656C95.7527 19.112 95.2127 19.724 94.6367 20.492C94.0607 21.26 93.5207 22.052 93.0167 22.868C92.5607 23.612 92.2727 24.044 92.1527 24.164C92.0567 24.26 91.8767 24.224 91.6127 24.056C91.0847 23.888 90.7487 23.66 90.6047 23.372C90.4847 23.06 90.4727 22.712 90.5687 22.328C90.6887 21.92 90.8327 21.368 91.0007 20.672C91.1927 19.976 91.3727 19.304 91.5407 18.656C91.7087 17.984 91.8167 17.504 91.8647 17.216C91.7687 17.024 91.6007 16.964 91.3607 17.036C91.1447 17.084 90.9167 17.192 90.6767 17.36C90.3887 17.552 90.0407 17.912 89.6327 18.44C89.2247 18.968 88.8047 19.58 88.3727 20.276C88.0847 20.732 87.7847 21.188 87.4727 21.644C87.1607 22.076 86.8727 22.46 86.6087 22.796C86.3447 23.132 86.1167 23.384 85.9247 23.552C85.5887 24.08 85.3607 24.368 85.2407 24.416C85.1207 24.464 84.8927 24.404 84.5567 24.236ZM110.512 23.264C110.488 23.144 110.464 22.904 110.44 22.544C110.416 22.16 110.344 21.92 110.224 21.824C110.296 21.272 110.356 20.768 110.404 20.312C110.452 19.856 110.548 19.412 110.692 18.98C110.764 18.74 110.884 18.428 111.052 18.044C111.244 17.66 111.448 17.288 111.664 16.928C111.88 16.544 112.072 16.28 112.24 16.136C112.408 15.992 112.552 15.824 112.672 15.632C112.816 15.44 112.972 15.296 113.14 15.2C113.284 15.08 113.368 14.948 113.392 14.804C113.44 14.66 113.536 14.552 113.68 14.48C114.04 14.24 114.328 14.024 114.544 13.832C114.76 13.64 114.988 13.472 115.228 13.328C115.492 13.184 115.84 13.052 116.272 12.932C116.752 12.788 117.1 12.692 117.316 12.644C117.556 12.572 117.784 12.548 118 12.572C118.216 12.596 118.54 12.668 118.972 12.788C118.972 12.644 118.96 12.476 118.936 12.284C118.912 12.068 118.9 11.84 118.9 11.6C118.948 11.264 118.936 10.94 118.864 10.628C118.816 10.292 118.768 10.052 118.72 9.908C118.576 9.74 118.492 9.476 118.468 9.116C118.444 8.732 118.336 8.432 118.144 8.216C118.216 7.76 118.048 7.328 117.64 6.92C117.256 6.488 116.788 6.152 116.236 5.912C115.684 5.648 115.168 5.552 114.688 5.624C114.424 5.648 114.148 5.684 113.86 5.732C113.572 5.78 113.308 5.9 113.068 6.092C112.756 6.116 112.504 6.128 112.312 6.128C112.12 6.128 111.94 6.068 111.772 5.948C111.508 5.564 111.328 5.288 111.232 5.12C111.16 4.952 111.172 4.82 111.268 4.724C111.364 4.604 111.532 4.496 111.772 4.4C112.036 4.28 112.36 4.088 112.744 3.824C113.008 3.92 113.2 3.908 113.32 3.788C113.44 3.668 113.632 3.656 113.896 3.752C114.088 3.632 114.4 3.596 114.832 3.644C115.264 3.692 115.528 3.74 115.624 3.788C115.696 3.836 115.768 3.872 115.84 3.896C115.912 3.896 115.984 3.908 116.056 3.932C116.896 4.1 117.628 4.436 118.252 4.94C118.9 5.444 119.416 6.092 119.8 6.884C119.944 7.196 120.088 7.508 120.232 7.82C120.376 8.132 120.52 8.432 120.664 8.72C120.712 8.864 120.76 9.164 120.808 9.62C120.88 10.052 120.94 10.472 120.988 10.88C121.06 11.264 121.096 11.492 121.096 11.564C121.144 11.804 121.168 12.032 121.168 12.248C121.168 12.464 121.144 12.692 121.096 12.932C120.808 14.828 120.376 16.568 119.8 18.152C119.224 19.736 118.444 21.344 117.46 22.976C117.268 23.288 117.004 23.6 116.668 23.912C116.332 24.224 116.008 24.512 115.696 24.776C115.312 25.112 114.892 25.352 114.436 25.496C113.98 25.616 113.476 25.688 112.924 25.712C112.252 25.184 111.76 24.8 111.448 24.56C111.136 24.32 110.932 24.116 110.836 23.948C110.74 23.78 110.632 23.552 110.512 23.264ZM113.284 23.948C113.428 23.828 113.584 23.756 113.752 23.732C113.944 23.684 114.088 23.552 114.184 23.336C114.496 23.096 114.844 22.712 115.228 22.184C115.636 21.656 116.02 21.092 116.38 20.492C116.74 19.868 117.016 19.328 117.208 18.872C117.304 18.608 117.388 18.356 117.46 18.116C117.556 17.852 117.676 17.612 117.82 17.396C118.06 16.94 118.252 16.4 118.396 15.776C118.54 15.128 118.528 14.636 118.36 14.3C117.136 14.708 116.128 15.26 115.336 15.956C114.544 16.628 113.824 17.588 113.176 18.836C113.104 19.34 112.96 19.82 112.744 20.276C112.552 20.708 112.432 21.176 112.384 21.68C112.264 21.92 112.204 22.184 112.204 22.472C112.228 22.736 112.288 23.048 112.384 23.408C112.696 23.648 112.864 23.78 112.888 23.804C112.936 23.804 113.068 23.852 113.284 23.948ZM121.649 24.884C121.457 25.028 121.181 25.064 120.821 24.992C120.461 24.92 120.173 24.848 119.957 24.776C119.909 24.68 119.861 24.572 119.813 24.452C119.765 24.332 119.729 24.224 119.705 24.128C119.681 24.008 119.657 23.888 119.633 23.768C119.633 23.648 119.609 23.54 119.561 23.444C119.633 23.372 119.693 23.3 119.741 23.228C119.813 23.156 119.885 23.096 119.957 23.048C120.077 23.048 120.209 23.048 120.353 23.048C120.497 23.048 120.629 23.048 120.749 23.048C120.869 23 120.965 22.928 121.037 22.832C121.133 22.712 121.253 22.652 121.397 22.652C121.925 22.316 122.441 21.788 122.945 21.068C123.473 20.348 123.977 19.544 124.457 18.656C124.961 17.768 125.405 16.904 125.789 16.064C126.197 15.2 126.533 14.48 126.797 13.904C126.797 13.856 126.797 13.82 126.797 13.796C126.797 13.772 126.785 13.748 126.761 13.724C126.593 13.772 126.413 13.82 126.221 13.868C126.029 13.892 125.837 13.94 125.645 14.012C125.621 14.036 125.585 14.06 125.537 14.084C125.489 14.108 125.453 14.132 125.429 14.156C125.165 14.372 124.817 14.432 124.385 14.336C123.977 14.24 123.689 14.036 123.521 13.724C123.473 13.628 123.425 13.544 123.377 13.472C123.329 13.4 123.269 13.316 123.197 13.22C123.293 13.004 123.437 12.8 123.629 12.608C123.845 12.392 124.073 12.26 124.313 12.212C124.961 12.068 125.597 11.96 126.221 11.888C126.869 11.792 127.517 11.768 128.165 11.816C128.813 11.864 129.449 12.008 130.073 12.248C130.193 12.272 130.301 12.296 130.397 12.32C130.493 12.344 130.589 12.392 130.685 12.464C130.829 12.56 130.973 12.668 131.117 12.788C131.261 12.908 131.393 13.028 131.513 13.148C131.681 13.292 131.813 13.448 131.909 13.616C132.005 13.784 132.065 13.976 132.089 14.192C132.137 14.432 132.161 14.684 132.161 14.948C132.185 15.212 132.173 15.476 132.125 15.74C132.005 16.34 131.813 17.06 131.549 17.9C131.309 18.716 131.093 19.424 130.901 20.024C130.613 20.96 130.361 21.8 130.145 22.544C129.929 23.264 129.725 23.972 129.533 24.668C129.221 24.764 128.921 24.752 128.633 24.632C128.345 24.512 128.093 24.332 127.877 24.092C127.781 23.756 127.733 23.444 127.733 23.156C127.733 22.844 127.817 22.532 127.985 22.22C128.153 21.884 128.273 21.452 128.345 20.924C128.417 20.396 128.573 19.976 128.813 19.664C128.861 19.568 128.885 19.484 128.885 19.412C128.885 19.268 128.933 18.992 129.029 18.584C129.149 18.176 129.281 17.72 129.425 17.216C129.569 16.688 129.701 16.196 129.821 15.74C129.965 15.284 130.061 14.936 130.109 14.696C130.157 14.552 130.157 14.42 130.109 14.3C130.085 14.18 130.073 14.048 130.073 13.904C129.881 13.808 129.605 13.736 129.245 13.688C128.909 13.64 128.681 13.76 128.561 14.048C128.537 14.096 128.513 14.156 128.489 14.228C128.489 14.276 128.477 14.324 128.453 14.372C128.261 14.972 127.997 15.548 127.661 16.1C127.349 16.652 127.061 17.408 126.797 18.368C126.725 18.632 126.617 18.884 126.473 19.124C126.353 19.34 126.245 19.58 126.149 19.844C126.149 19.868 126.137 19.892 126.113 19.916C126.113 19.94 126.101 19.964 126.077 19.988C126.077 20.012 126.065 20.036 126.041 20.06C125.873 20.276 125.717 20.504 125.573 20.744C125.453 20.96 125.321 21.188 125.177 21.428C124.769 22.1 124.229 22.724 123.557 23.3C122.909 23.876 122.273 24.404 121.649 24.884ZM143.222 12.644C143.534 12.812 143.738 12.98 143.834 13.148C143.93 13.292 144.122 13.568 144.41 13.976C144.362 14.192 144.29 14.516 144.194 14.948C144.122 15.356 144.038 15.752 143.942 16.136C143.846 16.52 143.75 16.808 143.654 17C143.702 17.336 143.618 17.828 143.402 18.476C143.21 19.1 143.006 19.76 142.79 20.456C142.574 21.128 142.394 21.788 142.25 22.436C142.106 23.084 142.082 23.648 142.178 24.128C142.106 24.176 142.034 24.236 141.962 24.308C141.914 24.38 141.842 24.44 141.746 24.488C141.458 24.632 141.17 24.644 140.882 24.524C140.594 24.404 140.366 24.2 140.198 23.912C140.03 23.6 139.982 23.276 140.054 22.94C140.126 22.628 140.246 22.16 140.414 21.536C140.582 20.888 140.762 20.18 140.954 19.412C141.146 18.644 141.326 17.9 141.494 17.18C141.662 16.436 141.806 15.8 141.926 15.272C142.046 14.744 142.106 14.396 142.106 14.228C142.106 14.012 141.938 13.892 141.602 13.868C141.29 13.82 140.942 13.832 140.558 13.904C140.198 13.952 139.958 14 139.838 14.048C139.334 14.264 138.914 14.564 138.578 14.948C138.242 15.332 137.966 15.764 137.75 16.244C137.534 16.724 137.33 17.216 137.138 17.72C137.162 17.864 137.174 17.996 137.174 18.116C137.174 18.212 137.222 18.32 137.318 18.44C137.438 18.608 137.618 18.728 137.858 18.8C138.098 18.872 138.35 18.932 138.614 18.98C138.878 19.028 139.106 19.1 139.298 19.196C139.37 19.22 139.43 19.232 139.478 19.232C139.526 19.208 139.574 19.196 139.622 19.196C139.694 19.196 139.754 19.244 139.802 19.34C139.97 19.628 140.09 19.868 140.162 20.06C140.234 20.252 140.15 20.516 139.91 20.852C139.31 21.26 138.722 21.656 138.146 22.04C137.57 22.424 137.006 22.856 136.454 23.336C136.286 23.504 136.082 23.636 135.842 23.732C135.626 23.804 135.434 23.936 135.266 24.128C135.122 24.296 134.954 24.452 134.762 24.596C134.594 24.716 134.426 24.86 134.258 25.028C134.162 25.124 134.066 25.208 133.97 25.28C133.874 25.328 133.766 25.304 133.646 25.208C133.286 25.184 133.022 25.028 132.854 24.74C132.686 24.452 132.554 24.104 132.458 23.696C132.722 23.36 133.13 22.988 133.682 22.58C134.234 22.148 134.846 21.716 135.518 21.284C136.214 20.828 136.862 20.432 137.462 20.096C136.838 20.048 136.358 19.916 136.022 19.7C135.686 19.46 135.386 19.22 135.122 18.98C134.834 18.596 134.702 18.152 134.726 17.648C134.774 17.144 134.906 16.652 135.122 16.172C135.338 15.668 135.554 15.248 135.77 14.912C135.818 14.864 135.842 14.816 135.842 14.768C135.866 14.72 135.89 14.684 135.914 14.66C136.226 14.108 136.49 13.712 136.706 13.472C136.946 13.232 137.33 12.944 137.858 12.608C138.05 12.488 138.254 12.404 138.47 12.356C138.686 12.284 138.902 12.236 139.118 12.212C139.358 12.164 139.682 12.14 140.09 12.14C140.498 12.14 140.906 12.164 141.314 12.212C141.722 12.236 142.034 12.296 142.25 12.392C142.418 12.44 142.574 12.5 142.718 12.572C142.886 12.644 143.054 12.668 143.222 12.644ZM155.713 24.236C155.449 24.068 155.209 23.852 154.993 23.588C154.777 23.3 154.669 22.94 154.669 22.508C154.669 22.268 154.717 21.86 154.813 21.284C154.909 20.708 155.041 20.06 155.209 19.34C155.377 18.62 155.545 17.948 155.713 17.324C155.953 16.892 156.157 16.46 156.325 16.028C156.493 15.596 156.577 15.332 156.577 15.236C156.625 14.948 156.685 14.612 156.757 14.228C156.853 13.844 156.949 13.496 157.045 13.184C157.141 12.872 157.213 12.692 157.261 12.644C157.381 12.524 157.525 12.452 157.693 12.428C157.861 12.38 158.029 12.404 158.197 12.5C158.389 12.572 158.533 12.728 158.629 12.968C158.893 13.256 159.025 13.604 159.025 14.012C159.025 14.396 158.893 14.972 158.629 15.74C158.413 16.22 158.197 16.784 157.981 17.432C157.765 18.08 157.573 18.68 157.405 19.232C157.261 19.76 157.177 20.12 157.153 20.312L156.433 20.528C156.841 20.144 157.225 19.748 157.585 19.34C157.945 18.908 158.209 18.572 158.377 18.332C158.785 17.78 159.133 17.324 159.421 16.964C159.733 16.58 160.129 16.124 160.609 15.596C161.089 15.044 161.557 14.708 162.013 14.588C162.493 14.444 162.865 14.372 163.129 14.372C163.657 14.468 164.077 14.744 164.389 15.2C164.725 15.632 164.941 16.28 165.037 17.144C165.037 17.48 165.001 17.876 164.929 18.332C164.881 18.788 164.857 19.016 164.857 19.016C164.857 19.016 165.049 18.764 165.433 18.26C165.841 17.756 166.381 17.204 167.053 16.604C167.509 16.268 167.953 16.076 168.385 16.028C168.817 15.956 169.201 16.1 169.537 16.46C170.161 16.796 170.569 17.312 170.761 18.008C170.953 18.68 171.001 19.544 170.905 20.6C170.833 21.224 170.821 21.692 170.869 22.004C170.917 22.292 170.989 22.58 171.085 22.868C171.277 22.964 171.313 23.168 171.193 23.48C171.073 23.768 170.929 23.912 170.761 23.912C170.521 23.912 170.245 23.864 169.933 23.768C169.645 23.672 169.381 23.516 169.141 23.3C168.925 23.06 168.817 22.736 168.817 22.328V20.096C168.817 19.568 168.793 19.136 168.745 18.8C168.721 18.464 168.661 18.26 168.565 18.188C168.301 18.044 167.917 18.2 167.413 18.656C166.909 19.112 166.369 19.724 165.793 20.492C165.217 21.26 164.677 22.052 164.173 22.868C163.717 23.612 163.429 24.044 163.309 24.164C163.213 24.26 163.033 24.224 162.769 24.056C162.241 23.888 161.905 23.66 161.761 23.372C161.641 23.06 161.629 22.712 161.725 22.328C161.845 21.92 161.989 21.368 162.157 20.672C162.349 19.976 162.529 19.304 162.697 18.656C162.865 17.984 162.973 17.504 163.021 17.216C162.925 17.024 162.757 16.964 162.517 17.036C162.301 17.084 162.073 17.192 161.833 17.36C161.545 17.552 161.197 17.912 160.789 18.44C160.381 18.968 159.961 19.58 159.529 20.276C159.241 20.732 158.941 21.188 158.629 21.644C158.317 22.076 158.029 22.46 157.765 22.796C157.501 23.132 157.273 23.384 157.081 23.552C156.745 24.08 156.517 24.368 156.397 24.416C156.277 24.464 156.049 24.404 155.713 24.236ZM173.849 20.384C173.873 20 173.945 19.52 174.065 18.944C174.185 18.368 174.293 17.816 174.389 17.288C174.509 16.76 174.545 16.388 174.497 16.172C174.401 16.052 174.293 15.944 174.173 15.848C174.053 15.752 173.933 15.656 173.813 15.56C173.861 15.296 173.909 15.056 173.957 14.84C174.029 14.624 174.209 14.444 174.497 14.3L174.749 14.408C174.821 14.384 174.893 14.36 174.965 14.336C175.037 14.288 175.097 14.252 175.145 14.228C175.385 13.796 175.601 13.328 175.793 12.824C175.985 12.296 176.153 11.804 176.297 11.348C176.417 10.94 176.597 10.472 176.837 9.944C177.077 9.416 177.317 8.984 177.557 8.648C177.701 8.456 177.821 8.276 177.917 8.108C178.013 7.916 178.109 7.724 178.205 7.532C178.421 7.1 178.721 6.632 179.105 6.128C179.489 5.6 179.909 5.108 180.365 4.652C180.845 4.172 181.289 3.812 181.697 3.572C182.105 3.308 182.453 3.164 182.741 3.14C183.029 3.092 183.401 3.056 183.857 3.032C184.097 3.176 184.385 3.416 184.721 3.752C185.081 4.088 185.261 4.4 185.261 4.688C185.261 4.928 185.261 5.192 185.261 5.48C185.261 5.744 185.201 5.984 185.081 6.2C185.105 6.368 185.093 6.548 185.045 6.74C184.997 6.908 184.937 7.088 184.865 7.28C184.841 7.376 184.805 7.484 184.757 7.604C184.733 7.724 184.709 7.844 184.685 7.964C184.229 8.9 183.809 9.692 183.425 10.34C183.065 10.964 182.669 11.516 182.237 11.996C181.829 12.452 181.337 12.932 180.761 13.436C180.209 13.916 179.537 14.48 178.745 15.128C179.153 15.248 179.513 15.452 179.825 15.74C180.137 16.004 180.305 16.376 180.329 16.856C180.329 16.976 180.317 17.108 180.293 17.252C180.293 17.396 180.305 17.54 180.329 17.684C180.377 17.996 180.401 18.296 180.401 18.584C180.425 18.848 180.449 19.124 180.473 19.412C180.521 19.7 180.521 20.048 180.473 20.456C180.425 20.864 180.377 21.212 180.329 21.5C180.305 21.596 180.269 21.656 180.221 21.68C180.197 21.68 180.185 21.74 180.185 21.86C180.185 22.244 180.101 22.58 179.933 22.868C179.765 23.156 179.585 23.48 179.393 23.84C179.321 23.96 179.225 24.068 179.105 24.164C178.985 24.236 178.877 24.332 178.781 24.452C178.373 24.932 177.953 25.208 177.521 25.28C177.113 25.352 176.633 25.46 176.081 25.604L176.009 25.676C175.769 25.484 175.589 25.364 175.469 25.316C175.373 25.268 175.193 25.196 174.929 25.1C174.857 24.764 174.689 24.428 174.425 24.092C174.185 23.756 174.041 23.408 173.993 23.048C173.969 22.88 173.957 22.724 173.957 22.58C173.981 22.412 173.933 22.256 173.813 22.112C173.981 21.992 174.005 21.848 173.885 21.68C173.765 21.512 173.777 21.356 173.921 21.212C173.921 21.164 173.921 21.116 173.921 21.068C173.945 21.02 173.957 20.984 173.957 20.96C173.933 20.912 173.909 20.84 173.885 20.744C173.861 20.624 173.849 20.504 173.849 20.384ZM176.873 23.408C177.449 22.856 177.833 22.292 178.025 21.716C178.217 21.116 178.313 20.504 178.313 19.88C178.337 19.232 178.349 18.548 178.349 17.828C178.349 17.708 178.325 17.588 178.277 17.468C178.253 17.348 178.265 17.24 178.313 17.144C178.217 16.88 178.121 16.592 178.025 16.28C177.929 15.944 177.749 15.656 177.485 15.416C177.293 15.512 177.137 15.62 177.017 15.74C176.897 15.86 176.741 16.064 176.549 16.352C176.429 16.592 176.309 17.036 176.189 17.684C176.093 18.332 176.021 19.052 175.973 19.844C175.925 20.612 175.925 21.332 175.973 22.004C176.045 22.676 176.189 23.144 176.405 23.408H176.873ZM181.337 6.38C180.521 7.268 179.801 8.276 179.177 9.404C178.553 10.532 178.061 11.672 177.701 12.824L178.097 13.04L179.897 11.564C179.969 11.516 180.113 11.36 180.329 11.096C180.545 10.832 180.749 10.556 180.941 10.268C181.157 9.956 181.277 9.764 181.301 9.692C181.517 9.524 181.733 9.212 181.949 8.756C182.189 8.3 182.405 7.796 182.597 7.244C182.789 6.668 182.933 6.128 183.029 5.624C183.149 5.096 183.185 4.7 183.137 4.436L182.885 4.544C182.645 4.856 182.393 5.168 182.129 5.48C181.865 5.768 181.601 6.068 181.337 6.38ZM185.732 25.46C185.42 25.46 185.168 25.4 184.976 25.28C184.808 25.16 184.592 24.992 184.328 24.776C183.872 24.296 183.548 23.84 183.356 23.408C183.164 22.952 183.104 22.52 183.176 22.112C183.248 21.92 183.272 21.74 183.248 21.572C183.248 21.38 183.248 21.284 183.248 21.284C183.128 21.164 183.092 21.092 183.14 21.068C183.188 21.02 183.236 20.948 183.284 20.852C183.428 20.852 183.476 20.72 183.428 20.456C183.38 20.264 183.476 19.844 183.716 19.196C183.956 18.548 184.256 17.936 184.616 17.36C184.76 17.12 184.976 16.808 185.264 16.424C185.552 16.016 185.864 15.62 186.2 15.236C186.56 14.828 186.884 14.504 187.172 14.264C187.772 13.76 188.3 13.388 188.756 13.148C189.212 12.908 189.704 12.728 190.232 12.608C190.76 12.488 191.12 12.428 191.312 12.428C191.528 12.428 191.816 12.62 192.176 13.004C192.728 13.244 193.124 13.532 193.364 13.868C193.628 14.204 193.796 14.696 193.868 15.344C193.94 16.064 193.88 16.892 193.688 17.828C193.52 18.74 192.956 19.88 191.996 21.248C191.396 22.112 190.844 22.76 190.34 23.192C189.836 23.6 189.236 24.008 188.54 24.416C188.036 24.752 187.58 25.004 187.172 25.172C186.764 25.316 186.284 25.412 185.732 25.46ZM189.188 21.644C189.764 20.996 190.22 20.384 190.556 19.808C190.916 19.232 191.252 18.5 191.564 17.612C191.66 17.348 191.72 17.024 191.744 16.64C191.768 16.232 191.756 15.86 191.708 15.524C191.684 15.164 191.6 14.96 191.456 14.912C191.168 14.744 190.82 14.696 190.412 14.768C190.004 14.816 189.56 15.044 189.08 15.452C188.336 16.076 187.688 16.856 187.136 17.792C186.584 18.704 186.044 19.748 185.516 20.924C185.156 21.788 185.072 22.484 185.264 23.012C185.48 23.516 185.924 23.696 186.596 23.552C187.292 23.384 188.156 22.748 189.188 21.644ZM205.668 25.568C204.876 25.28 204.264 24.74 203.832 23.948C203.4 23.132 203.124 22.34 203.004 21.572C202.98 21.572 202.908 21.62 202.788 21.716C202.692 21.788 202.572 21.908 202.428 22.076C202.092 22.412 201.672 22.832 201.168 23.336C200.664 23.816 200.136 24.248 199.584 24.632C199.056 24.992 198.552 25.148 198.072 25.1C197.88 24.98 197.676 24.848 197.46 24.704C197.268 24.536 197.076 24.368 196.884 24.2C196.788 24.104 196.704 24.008 196.632 23.912C196.584 23.816 196.536 23.708 196.488 23.588C196.224 22.868 196.08 22.232 196.056 21.68C196.032 21.104 196.092 20.54 196.236 19.988C196.404 19.412 196.596 18.776 196.812 18.08C196.836 18.008 196.92 17.708 197.064 17.18C197.232 16.652 197.424 16.052 197.64 15.38C197.856 14.708 198.06 14.108 198.252 13.58C198.468 13.052 198.624 12.74 198.72 12.644C198.792 12.644 198.864 12.644 198.936 12.644C199.032 12.62 199.116 12.608 199.188 12.608C199.428 12.608 199.608 12.692 199.728 12.86C199.824 13.004 199.944 13.112 200.088 13.184C200.256 13.256 200.376 13.352 200.448 13.472C200.568 13.712 200.484 14.228 200.196 15.02C199.908 15.788 199.596 16.664 199.26 17.648C198.948 18.536 198.684 19.436 198.468 20.348C198.252 21.236 198.24 21.98 198.432 22.58C198.6 22.58 198.828 22.436 199.116 22.148C199.428 21.836 199.668 21.62 199.836 21.5C200.076 21.356 200.388 21.08 200.772 20.672C201.18 20.24 201.576 19.808 201.96 19.376C202.344 18.92 202.608 18.572 202.752 18.332C202.848 18.188 202.992 17.924 203.184 17.54C203.376 17.132 203.568 16.7 203.76 16.244C203.976 15.764 204.144 15.32 204.264 14.912C204.408 14.504 204.468 14.216 204.444 14.048C204.42 13.808 204.444 13.628 204.516 13.508C204.612 13.364 204.756 13.232 204.948 13.112C205.068 13.112 205.2 13.112 205.344 13.112C205.488 13.112 205.62 13.124 205.74 13.148C205.884 13.316 206.04 13.472 206.208 13.616C206.376 13.76 206.544 13.916 206.712 14.084C206.832 14.54 206.76 15.152 206.496 15.92C206.232 16.688 205.968 17.516 205.704 18.404C205.44 19.292 205.272 20.192 205.2 21.104C205.128 21.992 205.368 22.772 205.92 23.444C206.424 23.228 206.808 23.024 207.072 22.832C207.36 22.616 207.636 22.4 207.9 22.184C208.164 21.944 208.5 21.704 208.908 21.464C209.148 21.608 209.328 21.896 209.448 22.328C209.568 22.76 209.628 23.108 209.628 23.372C209.532 23.444 209.436 23.516 209.34 23.588C209.268 23.636 209.208 23.708 209.16 23.804C209.016 24.116 208.728 24.428 208.296 24.74C207.864 25.052 207.408 25.304 206.928 25.496C206.448 25.664 206.028 25.688 205.668 25.568ZM210.936 25.568C210.816 25.568 210.684 25.508 210.54 25.388C210.42 25.268 210.312 25.112 210.216 24.92C210.12 24.704 210.06 24.512 210.036 24.344C210.036 24.224 210.192 23.972 210.504 23.588C210.84 23.18 211.272 22.688 211.8 22.112C212.328 21.536 212.868 20.96 213.42 20.384L214.968 18.692L214.32 16.964C214.2 16.604 214.056 16.208 213.888 15.776C213.744 15.32 213.612 14.912 213.492 14.552C213.396 14.168 213.348 13.916 213.348 13.796C213.252 13.532 213.216 13.292 213.24 13.076C213.264 12.836 213.312 12.668 213.384 12.572C213.36 12.38 213.504 12.284 213.816 12.284C214.128 12.284 214.38 12.368 214.572 12.536C214.764 12.584 214.944 12.74 215.112 13.004C215.28 13.244 215.424 13.532 215.544 13.868C215.688 14.18 215.796 14.492 215.868 14.804C215.868 14.876 215.904 15.068 215.976 15.38C216.072 15.668 216.168 15.944 216.264 16.208L216.516 17.432L217.344 16.532C217.512 16.34 217.692 16.16 217.884 15.992C218.1 15.824 218.208 15.692 218.208 15.596C218.304 15.596 218.472 15.476 218.712 15.236C218.952 14.972 219.24 14.672 219.576 14.336C219.912 13.952 220.248 13.64 220.584 13.4C220.944 13.136 221.172 13.004 221.268 13.004C221.532 12.98 221.784 13.124 222.024 13.436C222.264 13.724 222.396 14.048 222.42 14.408C222.42 14.576 222.204 14.912 221.772 15.416C221.34 15.92 220.692 16.484 219.828 17.108C219.3 17.492 218.892 17.816 218.604 18.08C218.316 18.344 217.884 18.704 217.308 19.16C217.692 19.952 218.052 20.66 218.388 21.284C218.748 21.908 219.192 22.508 219.72 23.084C219.984 23.324 220.224 23.552 220.44 23.768C220.68 23.984 220.8 24.092 220.8 24.092C220.896 24.068 220.992 24.128 221.088 24.272C221.208 24.392 221.256 24.548 221.232 24.74C221.304 24.908 221.28 25.052 221.16 25.172C221.064 25.268 220.944 25.34 220.8 25.388C220.656 25.436 220.56 25.496 220.512 25.568C220.344 25.592 220.188 25.568 220.044 25.496C219.924 25.4 219.828 25.376 219.756 25.424C219.66 25.472 219.396 25.34 218.964 25.028C218.556 24.716 218.16 24.344 217.776 23.912C217.608 23.744 217.392 23.48 217.128 23.12C216.888 22.736 216.672 22.424 216.48 22.184C216.312 21.92 216.156 21.692 216.012 21.5C215.868 21.308 215.772 21.164 215.724 21.068C215.628 21.164 215.388 21.416 215.004 21.824C214.62 22.208 214.128 22.724 213.528 23.372C212.592 24.284 211.968 24.884 211.656 25.172C211.368 25.436 211.128 25.568 210.936 25.568ZM90.2333 70.928C89.9933 70.688 89.7533 70.364 89.5133 69.956C89.2733 69.524 89.0813 69.032 88.9373 68.48C88.8893 68.288 88.8653 68.024 88.8653 67.688C88.8893 67.352 88.8893 67.112 88.8653 66.968C88.7933 67.136 88.6733 67.316 88.5053 67.508C88.3613 67.676 88.2173 67.82 88.0733 67.94C87.9773 68.036 87.7613 68.228 87.4253 68.516C87.0893 68.78 86.7533 68.996 86.4173 69.164C85.6253 69.668 84.9653 69.944 84.4373 69.992C83.9333 70.04 83.4533 69.776 82.9973 69.2C82.6133 68.888 82.3373 68.54 82.1693 68.156C82.0253 67.772 82.0253 67.244 82.1693 66.572C82.2173 65.732 82.3373 64.916 82.5293 64.124C82.7213 63.308 83.1173 62.228 83.7173 60.884C84.2213 59.9 84.6053 59.18 84.8693 58.724C85.1333 58.244 85.3013 57.956 85.3733 57.86C85.7333 57.74 86.0333 57.752 86.2733 57.896C86.5133 58.016 86.6573 58.244 86.7053 58.58C86.8493 58.82 86.8253 59.228 86.6333 59.804C86.4653 60.38 86.1653 61.088 85.7333 61.928C85.3973 62.744 85.0853 63.56 84.7973 64.376C84.5333 65.192 84.3773 65.888 84.3293 66.464C84.2813 67.04 84.4253 67.388 84.7613 67.508C84.9773 67.628 85.3493 67.592 85.8773 67.4C86.4293 67.208 87.0413 66.728 87.7133 65.96C88.4093 65.192 89.0813 64.028 89.7293 62.468C89.9213 61.988 90.0653 61.568 90.1613 61.208C90.2573 60.824 90.3173 60.404 90.3413 59.948C90.2933 59.66 90.3053 59.408 90.3773 59.192C90.4733 58.952 90.6653 58.748 90.9533 58.58C91.0493 58.46 91.1813 58.352 91.3493 58.256C91.5173 58.136 91.6253 58.136 91.6733 58.256L92.2493 58.22C92.3453 58.196 92.4053 58.256 92.4293 58.4C92.4773 58.52 92.5613 58.628 92.6813 58.724C92.9453 58.94 93.0173 59.408 92.8973 60.128C92.7773 60.848 92.4413 61.856 91.8893 63.152C91.4333 64.136 91.1213 64.88 90.9533 65.384C90.8093 65.888 90.7253 66.38 90.7013 66.86C90.7013 67.292 90.7853 67.7 90.9533 68.084C91.1213 68.468 91.3853 68.816 91.7453 69.128C92.0093 69.296 92.1533 69.488 92.1773 69.704C92.2253 69.92 92.2373 70.172 92.2133 70.46C92.1653 70.676 92.0213 70.856 91.7813 71C91.5653 71.12 91.3133 71.18 91.0253 71.18C90.7373 71.18 90.4733 71.096 90.2333 70.928ZM98.094 70.784C98.022 70.808 97.854 70.772 97.59 70.676C97.326 70.556 97.038 70.412 96.726 70.244C96.438 70.052 96.21 69.872 96.042 69.704C95.85 69.464 95.67 69.224 95.502 68.984C95.358 68.72 95.286 68.42 95.286 68.084C95.118 67.724 95.022 67.352 94.998 66.968C94.998 66.56 94.986 66.164 94.962 65.78C94.938 65.18 95.07 64.568 95.358 63.944C95.646 63.296 95.874 62.816 96.042 62.504C96.162 62.168 96.402 61.736 96.762 61.208C97.146 60.656 97.614 60.116 98.166 59.588C98.718 59.06 99.294 58.652 99.894 58.364C100.278 58.172 100.662 58.016 101.046 57.896C101.454 57.752 101.922 57.776 102.45 57.968C102.714 58.04 102.906 58.136 103.026 58.256C103.146 58.376 103.278 58.496 103.422 58.616C103.614 58.472 103.77 58.124 103.89 57.572C104.034 56.996 104.118 56.348 104.142 55.628C104.19 54.884 104.154 54.176 104.034 53.504C103.938 52.808 103.734 52.256 103.422 51.848C102.846 51.056 102.21 50.54 101.514 50.3C100.818 50.06 100.026 50.132 99.138 50.516C98.85 50.396 98.586 50.168 98.346 49.832C98.13 49.496 98.07 49.16 98.166 48.824C98.358 48.656 98.598 48.488 98.886 48.32C99.174 48.152 99.462 48.044 99.75 47.996C100.086 47.924 100.422 47.876 100.758 47.852C101.118 47.828 101.49 47.924 101.874 48.14C103.122 48.548 104.058 49.124 104.682 49.868C105.33 50.588 105.774 51.464 106.014 52.496C106.254 53.528 106.398 54.716 106.446 56.06C106.494 56.444 106.506 56.792 106.482 57.104C106.482 57.392 106.446 57.884 106.374 58.58C106.134 58.892 106.038 59.264 106.086 59.696C106.158 60.104 106.11 60.488 105.942 60.848C105.918 61.256 105.822 61.592 105.654 61.856C105.486 62.12 105.402 62.372 105.402 62.612C104.97 63.812 104.382 64.988 103.638 66.14C102.918 67.292 102.09 68.288 101.154 69.128C100.218 69.968 99.198 70.52 98.094 70.784ZM97.878 68.444C98.118 68.54 98.478 68.444 98.958 68.156C99.438 67.844 99.93 67.436 100.434 66.932C100.938 66.404 101.358 65.9 101.694 65.42C101.814 65.252 101.97 64.976 102.162 64.592C102.378 64.208 102.57 63.836 102.738 63.476C102.93 63.116 103.038 62.888 103.062 62.792C103.278 62.192 103.398 61.628 103.422 61.1C103.47 60.548 103.41 60.188 103.242 60.02C102.978 59.708 102.546 59.636 101.946 59.804C101.37 59.972 100.818 60.248 100.29 60.632C99.906 60.92 99.558 61.304 99.246 61.784C98.958 62.24 98.658 62.66 98.346 63.044C98.37 63.212 98.322 63.356 98.202 63.476C98.106 63.596 97.998 63.716 97.878 63.836C97.566 64.436 97.362 65 97.266 65.528C97.17 66.032 97.122 66.344 97.122 66.464C97.122 66.848 97.182 67.244 97.302 67.652C97.422 68.06 97.614 68.324 97.878 68.444ZM110.749 71.108C109.693 71.108 108.829 70.712 108.157 69.92C107.485 69.104 107.161 68.096 107.185 66.896C107.233 66.032 107.401 65.108 107.689 64.124C108.001 63.116 108.409 62.156 108.913 61.244C109.417 60.308 109.969 59.492 110.569 58.796C111.169 58.1 111.793 57.608 112.441 57.32C112.681 57.2 112.933 57.104 113.197 57.032C113.485 56.96 113.773 56.924 114.061 56.924C114.325 56.924 114.601 56.972 114.889 57.068C115.177 57.14 115.417 57.224 115.609 57.32C116.017 57.488 116.329 57.692 116.545 57.932C116.761 58.172 116.953 58.544 117.121 59.048C117.193 59.504 117.229 59.828 117.229 60.02C117.229 60.212 117.169 60.5 117.049 60.884C116.761 61.748 116.389 62.492 115.933 63.116C115.477 63.74 114.865 64.268 114.097 64.7C113.905 64.82 113.677 64.916 113.413 64.988C113.173 65.036 112.921 65.06 112.657 65.06C112.177 65.06 111.709 64.976 111.253 64.808C110.821 64.616 110.473 64.34 110.209 63.98L109.957 63.692L109.849 63.98C109.609 64.628 109.417 65.228 109.273 65.78C109.153 66.332 109.093 66.836 109.093 67.292C109.093 67.58 109.117 67.856 109.165 68.12C109.237 68.384 109.333 68.612 109.453 68.804C109.549 68.948 109.705 69.056 109.921 69.128C110.161 69.176 110.413 69.2 110.677 69.2C110.845 69.2 111.013 69.2 111.181 69.2C111.373 69.176 111.553 69.128 111.721 69.056C112.129 68.912 112.453 68.756 112.693 68.588C112.957 68.42 113.221 68.24 113.485 68.048L113.629 67.976H113.593C113.881 67.832 114.133 67.688 114.349 67.544C114.589 67.4 114.709 67.328 114.709 67.328C114.805 67.328 114.901 67.268 114.997 67.148C115.189 67.052 115.429 67.088 115.717 67.256C116.029 67.424 116.185 67.64 116.185 67.904C116.161 68.024 116.053 68.216 115.861 68.48C115.669 68.72 115.453 68.948 115.213 69.164C114.997 69.38 114.817 69.5 114.673 69.524C114.649 69.548 114.565 69.596 114.421 69.668C114.277 69.716 114.181 69.764 114.133 69.812H114.169C113.953 70.1 113.737 70.244 113.521 70.244H113.233C113.137 70.412 112.825 70.604 112.297 70.82C111.769 71.012 111.253 71.108 110.749 71.108ZM112.369 63.188C112.801 63.188 113.173 63.068 113.485 62.828C113.821 62.564 114.109 62.276 114.349 61.964C114.829 61.316 115.105 60.692 115.177 60.092C115.273 59.468 115.201 59.036 114.961 58.796C114.817 58.724 114.685 58.688 114.565 58.688C114.469 58.664 114.265 58.7 113.953 58.796C113.737 58.844 113.437 59.024 113.053 59.336C112.669 59.648 112.285 59.996 111.901 60.38C111.541 60.764 111.265 61.088 111.073 61.352L110.605 62.108C110.797 62.036 110.977 62 111.145 62C111.337 61.976 111.445 61.988 111.469 62.036C111.469 62.252 111.505 62.456 111.577 62.648C111.673 62.816 111.781 62.948 111.901 63.044C112.045 63.14 112.201 63.188 112.369 63.188ZM127.604 70.928C127.436 71.024 127.208 70.988 126.92 70.82C126.656 70.652 126.392 70.4 126.128 70.064C125.96 69.776 125.84 69.464 125.768 69.128C125.72 68.792 125.696 68.324 125.696 67.724C125.72 67.244 125.696 66.932 125.624 66.788C125.576 66.644 125.444 66.668 125.228 66.86C125.012 67.028 124.64 67.376 124.112 67.904C123.512 68.504 122.936 68.972 122.384 69.308C121.856 69.644 121.424 69.8 121.088 69.776C120.92 69.776 120.728 69.692 120.512 69.524C120.32 69.332 120.14 69.104 119.972 68.84C119.804 68.552 119.66 68.264 119.54 67.976C119.396 67.448 119.372 66.776 119.468 65.96C119.588 65.12 119.78 64.244 120.044 63.332C120.308 62.42 120.608 61.556 120.944 60.74C121.304 59.924 121.664 59.264 122.024 58.76C122.408 58.256 122.744 58.004 123.032 58.004C123.224 58.004 123.392 58.1 123.536 58.292C123.704 58.484 123.872 58.784 124.04 59.192C124.136 59.36 124.172 59.504 124.148 59.624C124.148 59.744 124.052 59.888 123.86 60.056C123.644 60.344 123.392 60.776 123.104 61.352C122.84 61.928 122.576 62.552 122.312 63.224C122.072 63.896 121.856 64.544 121.664 65.168C121.472 65.792 121.34 66.308 121.268 66.716C121.196 67.1 121.208 67.292 121.304 67.292C121.64 67.292 122.036 67.16 122.492 66.896C122.972 66.608 123.428 66.26 123.86 65.852C124.364 65.348 124.808 64.796 125.192 64.196C125.6 63.596 126.008 62.96 126.416 62.288C126.728 61.808 127.052 61.28 127.388 60.704C127.748 60.128 127.976 59.72 128.072 59.48C128.408 58.856 128.66 58.436 128.828 58.22C128.996 57.98 129.2 57.824 129.44 57.752C129.56 57.752 129.668 57.752 129.764 57.752C129.884 57.752 129.944 57.752 129.944 57.752C130.088 57.776 130.256 57.884 130.448 58.076C130.64 58.172 130.748 58.268 130.772 58.364C130.796 58.436 130.808 58.532 130.808 58.652C130.712 58.892 130.556 59.252 130.34 59.732C130.148 60.188 130.004 60.524 129.908 60.74C129.452 61.772 128.996 62.792 128.54 63.8C128.108 64.784 127.796 65.792 127.604 66.824C127.556 67.16 127.544 67.556 127.568 68.012C127.616 68.444 127.688 68.756 127.784 68.948C127.856 69.092 127.94 69.26 128.036 69.452C128.156 69.62 128.288 69.764 128.432 69.884C128.648 70.028 128.684 70.184 128.54 70.352C128.42 70.52 128.252 70.664 128.036 70.784C127.82 70.88 127.676 70.928 127.604 70.928ZM127.136 55.988C126.392 56.084 125.768 55.868 125.264 55.34C124.76 54.812 124.376 54.032 124.112 53C124.064 52.808 124.04 52.64 124.04 52.496C124.064 52.328 124.112 52.184 124.184 52.064C124.232 51.968 124.328 51.896 124.472 51.848C124.616 51.776 124.736 51.764 124.832 51.812C125.168 51.932 125.408 52.088 125.552 52.28C125.72 52.448 125.828 52.664 125.876 52.928C125.924 53.048 125.948 53.168 125.948 53.288C125.972 53.408 125.984 53.456 125.984 53.432C126.104 53.816 126.26 54.08 126.452 54.224C126.644 54.368 126.932 54.356 127.316 54.188C127.724 54.02 128.12 53.828 128.504 53.612C128.912 53.396 129.272 53.132 129.584 52.82C129.848 52.556 130.1 52.316 130.34 52.1C130.604 51.884 130.856 51.656 131.096 51.416L131.132 51.38C131.228 51.308 131.348 51.284 131.492 51.308C131.636 51.332 131.72 51.368 131.744 51.416C131.912 51.584 131.996 51.752 131.996 51.92C131.996 52.088 131.996 52.268 131.996 52.46L131.96 52.532C132.008 52.676 131.888 52.952 131.6 53.36C131.336 53.768 131.012 54.116 130.628 54.404C130.292 54.668 129.932 54.908 129.548 55.124C129.164 55.34 128.768 55.544 128.36 55.736C128.192 55.832 128.012 55.892 127.82 55.916C127.652 55.916 127.424 55.94 127.136 55.988ZM137.504 64.88C136.832 65 136.388 64.676 136.172 63.908C135.956 63.14 136.016 62.084 136.352 60.74C136.496 60.452 136.616 60.176 136.712 59.912C136.808 59.624 136.856 59.396 136.856 59.228C136.952 58.916 137.072 58.556 137.216 58.148C137.384 57.716 137.552 57.32 137.72 56.96C137.888 56.576 138.008 56.324 138.08 56.204C138.176 56.204 138.272 56.12 138.368 55.952C138.488 55.784 138.548 55.616 138.548 55.448C138.548 55.256 138.584 55.04 138.656 54.8C138.752 54.56 138.848 54.392 138.944 54.296C138.944 54.176 138.992 54.044 139.088 53.9C139.184 53.756 139.232 53.636 139.232 53.54C139.232 53.444 139.256 53.36 139.304 53.288C139.376 53.216 139.412 53.132 139.412 53.036C139.628 52.652 139.904 52.088 140.24 51.344C140.6 50.576 140.948 49.772 141.284 48.932C141.644 48.092 141.944 47.348 142.184 46.7C142.424 46.052 142.544 45.656 142.544 45.512C142.592 45.32 142.664 45.176 142.76 45.08C142.856 44.984 143 44.96 143.192 45.008C143.288 44.936 143.384 44.9 143.48 44.9C143.576 44.876 143.672 44.864 143.768 44.864C143.768 44.864 143.804 44.912 143.876 45.008C143.972 45.104 144.104 45.248 144.272 45.44C144.464 45.608 144.572 45.8 144.596 46.016C144.62 46.232 144.632 46.484 144.632 46.772C144.608 47.228 144.44 47.744 144.128 48.32C143.816 48.896 143.468 49.532 143.084 50.228C142.844 50.684 142.604 51.116 142.364 51.524C142.148 51.932 142.04 52.184 142.04 52.28C142.04 52.376 141.992 52.52 141.896 52.712C141.8 52.904 141.692 53.144 141.572 53.432C141.428 53.672 141.272 53.96 141.104 54.296C140.936 54.632 140.78 54.944 140.636 55.232C140.516 55.496 140.456 55.664 140.456 55.736C140.432 55.832 140.396 55.928 140.348 56.024C140.324 56.12 140.264 56.216 140.168 56.312C140.072 56.312 140.012 56.384 139.988 56.528C139.988 56.648 139.988 56.708 139.988 56.708C139.988 56.804 139.928 57.032 139.808 57.392C139.712 57.728 139.544 58.136 139.304 58.616C138.848 59.888 138.524 60.908 138.332 61.676C138.14 62.42 138.02 63.056 137.972 63.584C137.924 64.16 137.876 64.496 137.828 64.592C137.804 64.688 137.696 64.784 137.504 64.88ZM135.56 70.64C135.104 70.808 134.72 70.892 134.408 70.892C134.12 70.868 133.796 70.724 133.436 70.46C132.98 70.028 132.824 69.596 132.968 69.164C133.136 68.708 133.532 68.264 134.156 67.832C134.588 67.568 134.9 67.424 135.092 67.4C135.308 67.376 135.632 67.46 136.064 67.652C136.784 68.108 137.096 68.612 137 69.164C136.928 69.716 136.448 70.208 135.56 70.64Z" fill="#4C6B6F"/>
</svg>
